<svg width="32" height="32" viewBox="0 0 32 32" fill="none" xmlns="http://www.w3.org/2000/svg">
<path d="M26.0019 28C24.9114 28 24.0935 27.5429 23.5482 26.6286C23.0029 25.7143 22.9726 24.2971 23.4573 22.3771L26.9562 9.12C27.2894 7.93143 27.3348 7.10857 27.0925 6.65143C26.8804 6.19429 26.5624 5.96571 26.1383 5.96571C25.5324 5.96571 24.8356 6.39238 24.048 7.24571C23.2604 8.06857 22.4273 9.19619 21.5488 10.6286C20.7006 12.061 19.8676 13.6914 19.0496 15.52C18.2317 17.3486 17.4744 19.2533 16.7776 21.2343C16.0809 23.2152 15.5053 25.1657 15.0509 27.0857C14.96 27.421 14.748 27.5886 14.4148 27.5886H12.6426C12.2185 27.5886 12.0519 27.3905 12.1428 26.9943L16.3232 9.12C16.5959 7.93143 16.6262 7.10857 16.4141 6.65143C16.2324 6.19429 15.9294 5.96571 15.5053 5.96571C14.9298 5.96571 14.2482 6.39238 13.4605 7.24571C12.6729 8.06857 11.855 9.19619 11.0068 10.6286C10.1586 12.061 9.3255 13.6914 8.50758 15.52C7.68967 17.3486 6.93233 19.2533 6.23559 21.2343C5.53885 23.2152 4.97842 25.1657 4.55431 27.0857C4.46344 27.421 4.25138 27.5886 3.91816 27.5886H2.05512C1.63102 27.5886 1.4644 27.3905 1.55528 26.9943L5.87207 8.75429C6.02354 8.08381 6.03868 7.56571 5.91751 7.2C5.82663 6.80381 5.55399 6.60571 5.09959 6.60571C4.55431 6.60571 3.94845 7.01714 3.282 7.84C2.64584 8.63238 1.9188 10.1562 1.10088 12.4114C0.979711 12.8076 0.767658 13.0057 0.464726 13.0057C0.0103272 13.0057 -0.110846 12.7314 0.101207 12.1829C0.767658 10.08 1.4644 8.43429 2.19144 7.24571C2.94877 6.05714 3.7061 5.21905 4.46344 4.73143C5.22077 4.24381 5.91751 4 6.55367 4C7.55335 4 8.26524 4.38095 8.68934 5.14286C9.11345 5.87429 9.1286 7.09333 8.73478 8.8L7.59879 13.7371C7.56849 13.9505 7.61393 14.0724 7.73511 14.1029C7.85628 14.1333 7.96231 14.0571 8.05319 13.8743C9.81019 10.2171 11.4006 7.65714 12.8244 6.19429C14.2482 4.73143 15.5508 4 16.7322 4C17.8531 4 18.6407 4.45714 19.0951 5.37143C19.5798 6.28571 19.6101 7.68762 19.186 9.57714L18.2317 13.7371C18.2014 13.9505 18.2469 14.0724 18.368 14.1029C18.4892 14.1333 18.5952 14.0571 18.6861 13.8743C19.8373 11.4057 20.9127 9.45524 21.9123 8.02286C22.9423 6.56 23.9117 5.52381 24.8205 4.91429C25.7293 4.30476 26.5775 4 27.3651 4C28.486 4 29.3039 4.45714 29.8189 5.37143C30.3339 6.28571 30.3339 7.68762 29.8189 9.57714L26.3655 22.8343C26.1534 23.6876 26.1383 24.3276 26.32 24.7543C26.5018 25.181 26.835 25.3943 27.3197 25.3943C27.9256 25.3943 28.5163 24.9981 29.0918 24.2057C29.6977 23.3829 30.3187 21.8438 30.9549 19.5886C31.0458 19.2533 31.2427 19.0857 31.5456 19.0857C31.7879 19.0857 31.9243 19.1771 31.9546 19.36C32.0151 19.5429 32.0151 19.7562 31.9546 20C31.379 22.0724 30.758 23.7029 30.0915 24.8914C29.4251 26.0495 28.7435 26.8571 28.0467 27.3143C27.3803 27.7714 26.6987 28 26.0019 28Z" fill="#002BBA"/>
</svg>
