<svg width="212" height="91" viewBox="0 0 212 91" fill="none" xmlns="http://www.w3.org/2000/svg">
<path d="M1.44 71.04C0.479998 71.04 -2.38419e-06 70.688 -2.38419e-06 69.984C-2.38419e-06 69.408 0.415998 69.024 1.248 68.832L2.4 68.64C3.744 68.384 4.608 68 4.992 67.488C5.44 66.912 5.664 65.952 5.664 64.608V32.352C5.664 31.2 5.472 30.432 5.088 30.048C4.768 29.6 4.16 29.312 3.264 29.184L1.248 28.896C0.415998 28.832 -2.38419e-06 28.48 -2.38419e-06 27.84C-2.38419e-06 27.328 0.511998 26.976 1.536 26.784C3.52 26.464 5.024 25.952 6.048 25.248C7.136 24.544 8.256 23.68 9.408 22.656C9.984 22.08 10.464 21.792 10.848 21.792C11.424 21.792 11.712 22.176 11.712 22.944V27.264C11.712 27.712 11.904 28.064 12.288 28.32C12.672 28.512 13.088 28.384 13.536 27.936C16.16 25.44 18.432 23.744 20.352 22.848C22.336 21.952 24.32 21.504 26.304 21.504C28.16 21.504 29.792 22.016 31.2 23.04C32.672 24 33.76 25.472 34.464 27.456C34.656 27.968 34.976 28.288 35.424 28.416C35.936 28.48 36.416 28.288 36.864 27.84C39.488 25.408 41.76 23.744 43.68 22.848C45.6 21.952 47.552 21.504 49.536 21.504C52.224 21.504 54.4 22.528 56.064 24.576C57.792 26.56 58.656 29.504 58.656 33.408V64.608C58.656 65.952 58.848 66.912 59.232 67.488C59.68 68 60.576 68.352 61.92 68.544L64.032 68.832C64.736 68.96 65.088 69.344 65.088 69.984C65.088 70.688 64.704 71.04 63.936 71.04H47.52C46.624 71.04 46.176 70.688 46.176 69.984C46.176 69.344 46.528 68.96 47.232 68.832L48.576 68.64C50.048 68.448 51.008 68.064 51.456 67.488C51.904 66.912 52.128 65.952 52.128 64.608V34.464C52.128 31.328 51.552 29.12 50.4 27.84C49.312 26.56 47.808 25.92 45.888 25.92C43.968 25.92 42.208 26.528 40.608 27.744C39.072 28.896 37.824 30.464 36.864 32.448C35.904 34.368 35.424 36.512 35.424 38.88V64.608C35.424 65.952 35.648 66.912 36.096 67.488C36.544 68 37.472 68.352 38.88 68.544L40.992 68.832C41.696 68.96 42.048 69.344 42.048 69.984C42.048 70.688 41.664 71.04 40.896 71.04H24.576C23.68 71.04 23.232 70.688 23.232 69.984C23.232 69.344 23.584 68.96 24.288 68.832L25.632 68.64C26.976 68.448 27.84 68.064 28.224 67.488C28.672 66.912 28.896 65.952 28.896 64.608V34.464C28.896 31.328 28.32 29.12 27.168 27.84C26.08 26.56 24.576 25.92 22.656 25.92C20.736 25.92 18.976 26.528 17.376 27.744C15.84 28.896 14.592 30.464 13.632 32.448C12.672 34.368 12.192 36.512 12.192 38.88V64.608C12.192 65.952 12.384 66.912 12.768 67.488C13.216 68.064 14.112 68.416 15.456 68.544L18.048 68.832C18.752 68.96 19.104 69.312 19.104 69.888C19.104 70.656 18.624 71.04 17.664 71.04H1.44ZM73.8337 71.904C71.1457 71.904 68.9377 71.072 67.2097 69.408C65.4817 67.68 64.6177 65.408 64.6177 62.592C64.6177 59.84 65.4817 57.248 67.2097 54.816C68.9377 52.32 71.3057 50.08 74.3137 48.096C77.3217 46.112 80.7457 44.512 84.5857 43.296C85.4177 43.04 85.8337 42.496 85.8337 41.664V32.928C85.8337 29.856 85.3537 27.68 84.3937 26.4C83.4337 25.056 82.1217 24.384 80.4577 24.384C78.8577 24.384 77.3857 25.12 76.0417 26.592C74.7617 28 73.8337 30.4 73.2577 33.792C72.9377 35.84 72.2337 37.344 71.1457 38.304C70.1217 39.2 69.0657 39.648 67.9777 39.648C66.1857 39.648 65.2897 38.752 65.2897 36.96C65.2897 35.104 65.8017 33.28 66.8257 31.488C67.9137 29.632 69.3217 27.968 71.0497 26.496C72.7777 24.96 74.6657 23.744 76.7137 22.848C78.7617 21.952 80.8097 21.504 82.8577 21.504C89.1937 21.504 92.3617 25.184 92.3617 32.544V61.92C92.3617 64.608 93.0337 65.952 94.3777 65.952C95.2097 65.952 95.9777 65.408 96.6817 64.32C97.3857 63.168 97.7377 61.248 97.7377 58.56C97.7377 57.536 98.1537 57.024 98.9858 57.024C99.7537 57.024 100.138 57.568 100.138 58.656C100.138 63.328 99.3057 66.72 97.6418 68.832C96.0417 70.88 94.2177 71.904 92.1697 71.904C90.6337 71.904 89.4177 71.296 88.5217 70.08C87.6257 68.8 87.0177 67.296 86.6977 65.568C86.6337 64.928 86.3457 64.608 85.8337 64.608C85.3857 64.544 84.9377 64.832 84.4897 65.472C82.9537 67.584 81.3857 69.184 79.7857 70.272C78.1857 71.36 76.2017 71.904 73.8337 71.904ZM76.4257 67.488C78.0897 67.488 79.6257 66.912 81.0337 65.76C82.4417 64.544 83.5937 62.944 84.4897 60.96C85.3857 58.976 85.8337 56.736 85.8337 54.24V47.232C85.8337 46.016 85.1617 45.664 83.8177 46.176C79.9137 47.584 76.8737 49.536 74.6977 52.032C72.5857 54.464 71.5297 57.408 71.5297 60.864C71.5297 65.28 73.1617 67.488 76.4257 67.488ZM103.098 90.72C101.37 90.72 99.994 90.112 98.97 88.896C97.946 87.744 97.434 86.4 97.434 84.864C97.434 83.648 97.786 82.624 98.49 81.792C99.194 80.96 100.154 80.544 101.37 80.544C102.394 80.544 103.13 80.768 103.578 81.216C104.026 81.664 104.346 82.176 104.538 82.752C104.73 83.328 104.922 83.84 105.114 84.288C105.306 84.736 105.69 84.96 106.266 84.96C106.97 84.96 107.61 84.448 108.186 83.424C108.762 82.464 109.562 80.384 110.586 77.184C111.226 75.264 111.61 73.6 111.738 72.192C111.93 70.784 111.898 69.28 111.642 67.68C111.45 66.08 110.97 64.128 110.202 61.824L99.738 28.512C99.29 26.976 98.842 25.984 98.394 25.536C98.01 25.088 97.37 24.768 96.474 24.576L95.034 24.288C94.202 24.096 93.786 23.68 93.786 23.04C93.786 22.4 94.234 22.08 95.13 22.08H110.97C111.866 22.08 112.314 22.4 112.314 23.04C112.314 23.744 111.898 24.16 111.066 24.288L109.53 24.48C107.994 24.672 107.002 25.056 106.554 25.632C106.17 26.144 106.202 27.104 106.65 28.512L115.098 56.64C115.29 57.28 115.578 57.6 115.962 57.6C116.41 57.6 116.73 57.28 116.922 56.64L125.082 30.24C125.594 28.512 125.722 27.232 125.466 26.4C125.274 25.504 124.378 24.928 122.778 24.672L120.762 24.288C119.93 24.096 119.514 23.68 119.514 23.04C119.514 22.4 119.962 22.08 120.858 22.08H133.05C133.946 22.08 134.394 22.432 134.394 23.136C134.394 23.776 134.01 24.224 133.242 24.48L132.378 24.768C131.418 25.088 130.618 25.664 129.978 26.496C129.338 27.328 128.666 28.768 127.962 30.816L113.658 75.456C112.25 79.936 110.97 83.264 109.818 85.44C108.73 87.616 107.674 89.024 106.65 89.664C105.626 90.368 104.442 90.72 103.098 90.72ZM131.663 71.04C130.895 71.04 130.511 70.688 130.511 69.984C130.511 69.344 130.863 68.96 131.567 68.832L132.911 68.64C134.255 68.448 135.119 68.064 135.503 67.488C135.951 66.912 136.175 65.952 136.175 64.608V9.60003C136.175 8.44803 135.983 7.68003 135.599 7.29604C135.279 6.84804 134.671 6.56004 133.775 6.43204L131.759 6.14403C131.055 6.01604 130.703 5.63204 130.703 4.99204C130.703 4.35204 131.055 3.96804 131.759 3.84003C133.551 3.45604 135.055 3.00804 136.271 2.49603C137.487 1.98403 138.511 1.47203 139.343 0.960037C140.367 0.320038 141.135 3.8147e-05 141.647 3.8147e-05C142.351 3.8147e-05 142.703 0.512037 142.703 1.53604V41.76C142.703 42.4 142.959 42.816 143.471 43.008C144.047 43.136 144.591 42.912 145.103 42.336L156.335 30.24C157.679 28.768 158.223 27.552 157.967 26.592C157.775 25.568 157.039 24.928 155.759 24.672L153.551 24.288C152.719 24.096 152.303 23.68 152.303 23.04C152.303 22.4 152.751 22.08 153.647 22.08H170.159C171.055 22.08 171.503 22.432 171.503 23.136C171.503 23.84 171.087 24.224 170.255 24.288L169.391 24.384C167.919 24.512 166.447 25.088 164.975 26.112C163.503 27.072 161.743 28.608 159.695 30.72L153.743 37.056C152.399 38.528 152.079 39.968 152.783 41.376L164.879 64.608C165.583 65.888 166.351 66.816 167.183 67.392C168.015 67.968 169.039 68.384 170.255 68.64L171.215 68.832C171.983 69.024 172.367 69.408 172.367 69.984C172.367 70.688 171.919 71.04 171.023 71.04H154.319C153.423 71.04 152.975 70.688 152.975 69.984C152.975 69.344 153.391 68.96 154.223 68.832L155.855 68.64C158.287 68.32 158.799 66.752 157.391 63.936L148.271 46.176C147.951 45.536 147.471 45.184 146.831 45.12C146.255 45.056 145.711 45.28 145.199 45.792L144.143 46.848C143.567 47.424 143.183 48 142.991 48.576C142.799 49.152 142.703 49.792 142.703 50.496V64.608C142.703 65.952 142.895 66.912 143.279 67.488C143.727 68.064 144.623 68.416 145.967 68.544L148.559 68.832C149.263 68.96 149.615 69.344 149.615 69.984C149.615 70.688 149.231 71.04 148.463 71.04H131.663ZM169.339 71.04C168.571 71.04 168.187 70.688 168.187 69.984C168.187 69.344 168.539 68.96 169.243 68.832L170.587 68.64C171.931 68.448 172.923 68.064 173.563 67.488C174.203 66.912 174.523 65.952 174.523 64.608V9.60003C174.523 8.44803 174.331 7.64804 173.947 7.20004C173.627 6.75204 173.019 6.49603 172.123 6.43204L169.915 6.14403C169.211 6.01604 168.859 5.63204 168.859 4.99204C168.859 4.35204 169.211 3.96804 169.915 3.84003C171.707 3.45604 173.243 3.00804 174.523 2.49603C175.803 1.98403 176.859 1.47203 177.691 0.960037C178.715 0.320038 179.483 3.8147e-05 179.995 3.8147e-05C180.699 3.8147e-05 181.051 0.512037 181.051 1.53604V64.608C181.051 65.952 181.243 66.912 181.627 67.488C182.075 68 182.971 68.352 184.315 68.544L186.523 68.832C187.227 68.96 187.579 69.344 187.579 69.984C187.579 70.688 187.195 71.04 186.427 71.04H169.339ZM197.249 71.904C195.777 71.904 194.209 71.712 192.545 71.328C190.881 71.008 189.537 70.592 188.513 70.08C187.937 69.76 187.649 69.216 187.649 68.448L187.361 57.696C187.361 56.608 187.777 56.064 188.609 56.064C189.313 56.064 189.793 56.576 190.049 57.6C191.137 62.144 192.449 65.248 193.985 66.912C195.585 68.576 197.505 69.408 199.745 69.408C201.601 69.408 203.137 68.704 204.353 67.296C205.569 65.824 206.177 63.808 206.177 61.248C206.177 58.688 205.473 56.416 204.065 54.432C202.657 52.448 200.289 50.272 196.961 47.904C193.633 45.664 191.201 43.424 189.665 41.184C188.129 38.88 187.361 36.384 187.361 33.696C187.361 30.048 188.641 27.104 191.201 24.864C193.761 22.624 197.153 21.504 201.377 21.504C202.657 21.504 203.905 21.664 205.121 21.984C206.337 22.24 207.425 22.688 208.385 23.328C208.961 23.712 209.249 24.224 209.249 24.864L209.441 35.424C209.441 36.384 209.057 36.864 208.289 36.864C207.841 36.864 207.521 36.736 207.329 36.48C207.137 36.16 206.977 35.776 206.849 35.328C205.569 31.168 204.289 28.288 203.009 26.688C201.729 25.024 200.161 24.192 198.305 24.192C196.641 24.192 195.265 24.768 194.177 25.92C193.089 27.072 192.545 28.512 192.545 30.24C192.545 32.48 193.217 34.432 194.561 36.096C195.905 37.76 198.337 39.808 201.857 42.24C205.057 44.544 207.457 47.04 209.057 49.728C210.721 52.352 211.553 55.232 211.553 58.368C211.553 62.464 210.241 65.76 207.617 68.256C204.993 70.688 201.537 71.904 197.249 71.904Z" fill="#002BBA"/>
</svg>
